<svg viewBox="0 0 90 90" xmlns="http://www.w3.org/2000/svg" fill-rule="evenodd" clip-rule="evenodd"
  stroke-linejoin="round" stroke-miterlimit="1.414">
  <filter id="dropshadow" height="130%">
    <feGaussianBlur in="SourceAlpha" stdDeviation="2" />
    <feOffset dx="1" dy="2" result="offsetblur" />
    <feComponentTransfer>
      <feFuncA type="linear" slope="0.2" />
    </feComponentTransfer>
    <feMerge>
      <feMergeNode />
      <feMergeNode in="SourceGraphic" />
    </feMerge>
  </filter>
  <filter id="dropshadow2" height="130%">
    <feGaussianBlur in="SourceAlpha" stdDeviation="1" />
    <feOffset dx="1" dy="1" result="offsetblur" />
    <feComponentTransfer>
      <feFuncA type="linear" slope="0.2" />
    </feComponentTransfer>
    <feMerge>
      <feMergeNode />
      <feMergeNode in="SourceGraphic" />
    </feMerge>
  </filter>
  <circle style="filter:url(#dropshadow)" cx="43.8" cy="45" r="41.056" fill="#fff" />
  <path
    d="M43.768 23c12.147 0 21.998 9.852 21.998 22 0 12.147-9.85 22-21.998 22-12.148 0-22-9.853-22-22 0-12.148 9.852-22 22-22m15.76 43.688c-4.74 3.443-10.724 3.936-15.758 1.825-5.036 2.113-11.02 1.62-15.76-1.823s-7.057-8.983-6.605-14.422c-3.565-4.138-4.947-9.982-3.136-15.554 1.81-5.57 6.362-9.485 11.676-10.738 2.832-4.668 7.963-7.787 13.822-7.787 5.857 0 10.988 3.117 13.82 7.785 5.316 1.25 9.868 5.167 11.68 10.738 1.81 5.57.427 11.415-3.137 15.55.454 5.442-1.863 10.983-6.602 14.425"
    fill="#034ea1" />
  <path
    d="M40.36 42.227c0 .23.058.407.175.536a.572.572 0 0 0 .44.192c.17 0 .314-.062.426-.185.113-.123.17-.3.17-.534a.694.694 0 0 0-.172-.49.566.566 0 0 0-.435-.186c-.204 0-.355.07-.454.21-.102.142-.15.293-.15.457m.075-1.86a.52.52 0 0 0 .14.388.51.51 0 0 0 .376.14.515.515 0 0 0 .38-.14.526.526 0 0 0 .14-.39.504.504 0 0 0-.138-.375.504.504 0 0 0-.373-.14.523.523 0 0 0-.383.14.51.51 0 0 0-.142.377m-.17.84a.964.964 0 0 1-.47-.376.978.978 0 0 1-.146-.522c0-.323.11-.59.337-.802.226-.212.548-.317.964-.317.414 0 .734.104.962.316.228.21.342.48.342.802 0 .2-.053.38-.157.538a.998.998 0 0 1-.44.36c.24.095.423.237.548.423.125.185.188.398.188.642 0 .4-.128.726-.383.976-.256.252-.596.377-1.02.377-.396 0-.724-.104-.987-.31-.31-.246-.465-.583-.465-1.01 0-.233.06-.45.175-.645.117-.197.3-.348.55-.454m-4.41 1.225l.828-.084a.71.71 0 0 0 .212.445.567.567 0 0 0 .843-.046c.12-.142.18-.355.18-.638 0-.266-.058-.466-.18-.6a.595.595 0 0 0-.464-.2c-.238 0-.452.106-.642.317l-.676-.098.427-2.26h2.2v.78h-1.57l-.13.737a1.25 1.25 0 0 1 .568-.14c.37 0 .683.135.938.403.257.27.386.617.386 1.046 0 .358-.103.678-.31.958-.284.383-.675.573-1.176.573-.4 0-.727-.106-.98-.32a1.325 1.325 0 0 1-.453-.87m-1.82-1.704c0-.27-.062-.478-.186-.625-.123-.148-.267-.22-.428-.22a.478.478 0 0 0-.385.18c-.1.122-.153.322-.153.598 0 .28.056.486.166.616.11.13.25.198.415.198a.52.52 0 0 0 .405-.19c.11-.126.164-.31.164-.556m-1.884 1.818l.805-.09c.02.165.073.286.155.365a.46.46 0 0 0 .328.117c.173 0 .318-.08.44-.237.12-.157.196-.485.23-.982a.99.99 0 0 1-.784.364c-.342 0-.638-.133-.885-.395-.248-.264-.372-.607-.372-1.03 0-.44.13-.795.393-1.065.26-.27.594-.403.998-.403.44 0 .802.17 1.085.51.283.34.425.9.425 1.68 0 .795-.148 1.366-.44 1.718-.296.35-.68.527-1.15.527-.34 0-.615-.09-.824-.27-.208-.182-.342-.452-.402-.81m-1.598 1.003h-.832V40.41a2.85 2.85 0 0 1-1.075.632v-.755a2.41 2.41 0 0 0 .708-.404c.256-.2.43-.43.524-.694h.676v4.358z"
    fill="#034ea1" fill-rule="nonzero" />
  <path
    d="M43.768 7.876c13.416 0 25.172 7.12 31.695 17.79A36.94 36.94 0 0 1 80.89 45c0 20.5-16.623 37.123-37.122 37.123C23.268 82.123 6.644 65.5 6.644 45c0-20.5 16.625-37.124 37.124-37.124m0-1.375c21.257 0 38.498 17.24 38.498 38.5 0 21.258-17.24 38.5-38.498 38.5-21.26 0-38.5-17.242-38.5-38.5 0-21.26 17.24-38.5 38.5-38.5"
    fill="#034ea1" />
  <path
    d="M76.562 46.078l-.873-.016c.085.26.157.44.22.537.11.17.25.26.423.263.277.003.418-.117.42-.36.004-.123-.06-.268-.19-.425m.248-.8l.167.203c.06.08.087.16.086.236-.004.205-.132.318-.385.342.098.113.183.24.258.38.074.142.11.254.11.337a.54.54 0 0 1-.156.375.458.458 0 0 1-.354.156c-.293-.006-.52-.175-.68-.508a5.675 5.675 0 0 1-.292-.738l-.184-.002c-.363-.006-.546.1-.55.32-.005.247.063.374.203.376a.67.67 0 0 0 .09-.006.875.875 0 0 1 .11-.005c.063 0 .12.025.165.068a.2.2 0 0 1 .07.162.23.23 0 0 1-.057.16.18.18 0 0 1-.135.057c-.18-.005-.323-.098-.43-.284a1.012 1.012 0 0 1-.13-.532c.005-.266.06-.453.17-.565.118-.122.32-.18.606-.175l1.1.02c.13 0 .195-.038.195-.117.002-.06-.032-.14-.1-.243l.126-.016zm.12 2.486l-.128 1.046-.07-.01c.026-.208-.067-.325-.278-.35l-1.248-.154c-.122-.015-.22.01-.29.072a.397.397 0 0 0-.127.254c-.023.183.05.376.218.58l1.333.165c.213.025.33-.066.357-.275l.07.01-.13 1.045-.07-.008c.026-.21-.066-.325-.277-.352l-1.343-.165c-.106-.013-.175 0-.21.04-.035.037-.057.12-.065.242l-.07-.007-.143-.762.406.05c-.244-.262-.348-.535-.313-.82.047-.378.32-.537.823-.477l1.13.14c.21.024.33-.067.355-.274l.07.008zm-.412 2.753l-.206 1.163-.07-.01c.045-.25-.038-.393-.247-.43l-1.318-.232c-.17-.03-.266.017-.29.142a.627.627 0 0 0 .008.194l-.074-.014-.124-.837 1.873.33c.208.035.334-.07.38-.32l.068.014zm-3.163-.175a.24.24 0 0 1 .164.107c.036.055.05.12.035.194a.242.242 0 0 1-.1.163c-.053.038-.116.05-.188.038a.257.257 0 0 1-.17-.1.234.234 0 0 1-.042-.19.258.258 0 0 1 .3-.213m2.873 1.78l-.273 1.017-.068-.02c.055-.202-.02-.33-.227-.386l-1.128-.3c-.3-.08-.48 0-.544.24-.052.19-.004.39.14.606l1.294.346c.205.055.334-.018.39-.22l.066.017-.27 1.018-.07-.017c.054-.203-.02-.332-.227-.387l-2.38-.64c-.112-.03-.186-.025-.22.01-.022.02-.05.1-.088.236l-.086-.026c0-.143-.007-.4-.022-.768l1.466.392c-.202-.288-.27-.557-.204-.803.108-.402.406-.54.895-.408l1.1.294c.205.056.335-.018.39-.22l.068.018zM75.04 54.66c.253.492.285.984.094 1.48-.183.476-.487.8-.912.97-.406.156-.837.148-1.294-.027a1.71 1.71 0 0 1-.97-.88 1.58 1.58 0 0 1-.04-1.293c.07-.185.17-.36.3-.53.132-.168.202-.263.21-.285.036-.082 0-.163-.104-.243l.04-.103 1.07.36-.047.12a1.166 1.166 0 0 0-.763.116c-.228.123-.39.315-.49.576-.135.348-.103.673.096.972.188.28.49.5.907.66.407.155.78.183 1.117.085.336-.1.57-.315.698-.65.11-.283.142-.56.098-.83a2.01 2.01 0 0 0-.14-.455l.13-.046zm-3.182 6.062c-.29-.16-.555-.248-.79-.262-.29-.016-.5.088-.624.31a.46.46 0 0 0 .01.48c.084.15.23.28.435.395.28.155.545.24.8.256.294.02.496-.072.608-.272.098-.178.088-.358-.03-.542a1.12 1.12 0 0 0-.41-.364m.048-.498c.29.18.483.42.573.716.09.298.055.582-.104.856a.99.99 0 0 1-.665.483 1.183 1.183 0 0 1-.868-.136c-.294-.163-.488-.38-.582-.648-.102-.285-.07-.577.097-.876.164-.297.39-.484.68-.557.288-.074.578-.02.87.16m-2.645 2.384c-.03.04-.033.106-.004.2a.86.86 0 0 0 .086.206L70.54 65c.283.47.328.828.136 1.074-.15.193-.307.225-.473.094-.046-.036-.067-.09-.058-.16a.316.316 0 0 1 .066-.157.798.798 0 0 1 .178-.128.372.372 0 0 0 .11-.095c.1-.127-.006-.403-.317-.83l-1.884-.435a.886.886 0 0 0-.253-.04c-.06.004-.124.038-.198.098l-.054-.043.632-.81.057.042c-.123.155-.148.26-.077.316.037.03.087.05.15.067l1.39.334-.717-1.12a.976.976 0 0 0-.133-.18c-.024-.018-.06-.02-.106-.004a.33.33 0 0 0-.14.115l-.055-.042.414-.53.056.04zm.103 3.863c-.1-.082-.226-.06-.38.067-.078.06-.206.2-.385.41-.14.168-.276.304-.408.41.026.234.083.39.172.463.183.155.433.043.746-.332.193-.23.308-.443.344-.642.033-.173.003-.297-.09-.376m-1.63-.686a1.146 1.146 0 0 0-.49-.247c-.198-.038-.347.002-.447.12-.084.1-.11.206-.08.316a.58.58 0 0 0 .218.296c.165.128.327.21.485.244.19.038.338-.005.443-.13.16-.192.117-.39-.13-.6m.008-.91l-.265.318c.125.02.25.085.375.19.177.15.274.33.285.537.013.206-.06.403-.215.59-.06.07-.126.133-.196.186-.032.21-.01.343.064.406.078.066.25-.06.515-.376.257-.304.464-.485.62-.54.146-.052.303-.007.467.13.172.144.23.378.175.7a1.73 1.73 0 0 1-.39.832c-.172.204-.362.328-.57.37-.17.035-.296.02-.38-.053-.072-.06-.11-.165-.11-.32a20.59 20.59 0 0 1-.013-.427.47.47 0 0 1-.197.076c-.072.01-.125 0-.16-.03-.08-.066-.126-.173-.14-.32-.008-.076-.005-.2.007-.378-.302.153-.576.13-.82-.076a.747.747 0 0 1-.277-.55c-.014-.227.066-.442.243-.652.073-.09.19-.18.346-.266.156-.087.257-.16.302-.22l.186-.254.15.127zm-1.312 2.957c-.23-.237-.457-.398-.68-.48-.274-.1-.503-.063-.686.116a.454.454 0 0 0-.132.46c.037.168.138.337.302.506.222.23.452.39.69.477.276.104.496.075.66-.084.147-.14.19-.317.13-.527a1.14 1.14 0 0 0-.284-.47m.192-.46c.226.257.338.543.337.853 0 .31-.116.573-.348.787a.995.995 0 0 1-.78.27c-.3-.022-.563-.15-.79-.385-.233-.242-.356-.505-.367-.79-.014-.302.103-.572.35-.81.243-.235.514-.347.81-.334.3.015.56.15.787.41m-1.223 2.59l-.898.78-.045-.054c.193-.17.22-.333.08-.493l-1.634-1.88c-.06-.067-.11-.103-.155-.108-.044-.006-.097.018-.16.073a1.796 1.796 0 0 0-.12.118l-.05-.057c.097-.137.25-.373.46-.704l1.98 2.28c.14.16.305.156.496-.01l.047.053zm-2.185.635c-.196-.27-.398-.458-.606-.57-.256-.138-.488-.132-.696.017a.462.462 0 0 0-.195.438c.014.172.09.353.23.544.187.257.392.45.616.57.26.14.482.144.667.008.164-.12.232-.286.202-.504a1.126 1.126 0 0 0-.218-.503m.254-.432c.188.29.26.586.216.893-.043.306-.196.55-.456.73a.993.993 0 0 1-.807.16 1.2 1.2 0 0 1-.73-.49c-.198-.273-.282-.55-.254-.834.03-.3.18-.552.46-.753.273-.2.556-.273.85-.218.292.054.533.225.72.51M62 72.627l-.91.527-.036-.06c.183-.107.22-.25.113-.435l-.63-1.09c-.06-.105-.137-.17-.23-.188a.385.385 0 0 0-.28.05c-.158.093-.27.268-.33.528l.67 1.16c.107.187.25.226.432.12l.035.062-.913.526-.034-.06c.182-.104.22-.25.112-.434l-.676-1.17c-.054-.094-.106-.142-.158-.148-.053-.004-.13.03-.234.097l-.035-.062.522-.57.205.353c.062-.35.217-.596.464-.74.33-.19.623-.068.875.37l.57.987c.106.183.25.223.43.12l.036.06zm-2.403 1.372l-.93.495-.032-.062c.185-.098.227-.24.127-.428l-.548-1.032c-.146-.274-.328-.35-.548-.234-.174.09-.29.266-.346.518l.627 1.18c.1.19.243.234.428.135l.033.062-.93.493-.033-.062c.185-.1.228-.242.128-.43l-1.158-2.177c-.055-.102-.106-.154-.156-.154-.032 0-.11.03-.233.096l-.04-.08c.104-.1.287-.278.547-.54l.713 1.34c.074-.345.222-.577.45-.698.366-.195.668-.07.906.377l.535 1.004c.1.19.242.234.426.136l.033.062zm-2.845.542c-.027.28-.075.495-.143.645a.83.83 0 0 1-.464.45.86.86 0 0 1-.728-.028c-.26-.125-.454-.35-.583-.67-.13-.32-.142-.625-.04-.91.104-.286.315-.493.632-.622a.904.904 0 0 1 .535-.055c.172.04.282.118.33.235a.207.207 0 0 1-.003.167.217.217 0 0 1-.125.12.2.2 0 0 1-.176-.005.212.212 0 0 1-.116-.113.337.337 0 0 0-.184-.193.364.364 0 0 0-.273.006.587.587 0 0 0-.383.504c-.02.182.007.366.083.554.1.244.253.428.46.55.21.126.412.148.61.067.252-.1.414-.338.486-.71l.08.01zm-3.03.313c-.156-.35-.37-.48-.64-.386-.304.104-.418.346-.342.723l.98-.337zm.81.51c.015.24-.044.47-.178.69a.982.982 0 0 1-.517.44.866.866 0 0 1-.723-.064c-.258-.138-.446-.378-.564-.72-.11-.32-.113-.62-.006-.89a.91.91 0 0 1 .58-.552c.255-.09.486-.077.694.038.208.113.354.29.437.53l-1.463.506c.102.296.26.517.474.663.214.146.426.182.638.11a.745.745 0 0 0 .38-.316.905.905 0 0 0 .16-.44l.088.004zm-2.64-.93l-.116.026c-.118-.23-.196-.363-.235-.4-.113-.11-.28-.137-.5-.086l-.448.104.6 2.596c.05.218.233.29.55.216l.023.092-1.45.336-.02-.093c.316-.074.45-.22.4-.436l-.6-2.6-.39.092c-.25.058-.407.16-.466.302-.028.064-.04.22-.036.47l-.117.026-.162-.833 2.748-.633.22.82zm-4.388 2.853l-.093-1.065a.564.564 0 0 0-.176-.39.462.462 0 0 0-.363-.12c-.208.018-.362.13-.46.337a1.205 1.205 0 0 0-.095.638c.026.292.103.53.233.71.133.192.297.28.492.262.13-.01.228-.04.296-.095a.588.588 0 0 0 .168-.276m.78.218c-.24.09-.48.208-.73.35l-.03-.358a.812.812 0 0 1-.666.418.766.766 0 0 1-.573-.196c-.223-.188-.35-.468-.384-.842-.028-.33.05-.624.233-.884.185-.262.424-.406.72-.432.22-.02.393.036.515.165l-.07-.8c-.01-.112-.04-.176-.092-.19a1.337 1.337 0 0 0-.25.01l-.01-.1c.152-.046.393-.14.73-.285l.25 2.886c.01.102.04.163.092.18.03.015.12.017.26.003l.007.074zm-2.72.402l-1.054.038-.002-.07c.21-.008.31-.12.304-.33l-.044-1.258c-.004-.124-.043-.215-.118-.276a.387.387 0 0 0-.27-.084c-.182.005-.36.107-.538.308l.047 1.342c.006.212.115.314.325.306v.07l-1.05.038-.003-.07c.21-.007.31-.117.303-.332l-.047-1.35c-.004-.107-.028-.174-.073-.203-.043-.028-.127-.036-.25-.025l-.002-.07.73-.26.014.41c.22-.283.473-.428.76-.438.38-.012.58.234.6.74l.038 1.136c.008.213.117.315.326.31l.003.068zm-3.465-.435l.075-.868a2.98 2.98 0 0 0-.552.18c-.18.1-.276.235-.29.407-.025.275.084.424.325.444.126.012.273-.044.44-.163m.78.307l-.213.15a.38.38 0 0 1-.24.07c-.203-.018-.31-.154-.317-.41-.118.09-.25.168-.395.233a.796.796 0 0 1-.344.086.55.55 0 0 1-.365-.18.473.473 0 0 1-.13-.366c.027-.292.21-.506.553-.643.232-.093.485-.172.758-.238l.016-.186c.032-.36-.062-.553-.28-.57-.25-.022-.38.037-.392.175a.553.553 0 0 0 0 .09.583.583 0 0 1-.003.11.238.238 0 0 1-.078.16.212.212 0 0 1-.167.06.23.23 0 0 1-.154-.068.186.186 0 0 1-.05-.14c.017-.18.12-.315.312-.41.164-.08.343-.11.54-.093.265.022.45.092.552.207.112.127.156.334.132.618l-.096 1.095c-.012.13.022.195.103.205.06.004.14-.023.247-.085l.01.127zm-3.875-1.708c.04-.382-.08-.6-.36-.655-.317-.062-.536.09-.66.457l1.02.197zm.445.848c-.105.215-.27.383-.497.507a.98.98 0 0 1-.666.122.865.865 0 0 1-.595-.416c-.156-.246-.2-.547-.13-.904.064-.333.21-.59.44-.775a.915.915 0 0 1 .78-.186c.263.052.457.18.58.38.124.202.16.43.113.68l-1.52-.296c-.06.306-.032.578.08.81.112.235.277.372.496.416.156.03.32.004.488-.084a.89.89 0 0 0 .36-.3l.07.048zm-2.454-.432c-.182.214-.344.364-.487.448-.2.12-.41.155-.638.102a.852.852 0 0 1-.58-.442c-.14-.25-.172-.544-.094-.88.077-.338.24-.594.49-.768.248-.177.54-.224.874-.148a.88.88 0 0 1 .47.263c.117.13.163.258.134.38a.21.21 0 0 1-.098.137.22.22 0 0 1-.17.027.21.21 0 0 1-.142-.105.215.215 0 0 1-.027-.16.332.332 0 0 0-.042-.263.35.35 0 0 0-.226-.154.586.586 0 0 0-.604.196c-.12.133-.204.3-.25.498-.058.256-.038.495.06.716.1.22.253.355.46.404.267.06.536-.042.81-.307l.058.056zm-2.452.205l-.997-.34.024-.066c.197.068.33.002.4-.2l.41-1.19c.04-.117.036-.216-.01-.3a.385.385 0 0 0-.223-.175c-.173-.062-.377-.03-.612.093l-.44 1.27c-.068.2-.003.336.195.404l-.022.066-.996-.343.022-.066c.2.068.332.002.402-.2l.44-1.278c.035-.1.037-.173.005-.216-.03-.04-.105-.08-.223-.114l.022-.066.774.018-.133.388c.307-.183.595-.227.866-.135.362.126.46.428.296.905l-.37 1.076c-.07.203-.006.338.193.406l-.023.065zm-2.664-2.606c.112-.368.036-.605-.23-.713-.298-.12-.542-.012-.732.324l.962.39zm.274.916c-.144.19-.34.324-.584.403a.964.964 0 0 1-.68-.008.86.86 0 0 1-.503-.52c-.106-.274-.09-.577.045-.915.128-.314.32-.54.58-.674a.916.916 0 0 1 .8-.038c.25.102.417.263.5.485a.923.923 0 0 1-.02.688l-1.435-.58c-.117.293-.143.562-.077.814.066.25.202.417.408.5.148.06.314.065.496.013a.89.89 0 0 0 .41-.23l.06.063zm-2.535-.195l-1.044-.555.032-.062c.223.12.385.083.485-.104l.627-1.18c.082-.154.066-.26-.045-.32a.58.58 0 0 0-.185-.052l.034-.067.838.14-.893 1.68c-.1.188-.04.34.185.458l-.033.062zm1.14-2.954a.228.228 0 0 1-.15.125.263.263 0 0 1-.195-.025.247.247 0 0 1-.126-.145.246.246 0 0 1 .022-.192.255.255 0 0 1 .15-.13.233.233 0 0 1 .193.016.264.264 0 0 1 .13.152c.02.07.012.135-.023.2M28.46 73.39c-.237.15-.435.244-.596.284a.824.824 0 0 1-.64-.09.852.852 0 0 1-.426-.59c-.06-.28-.004-.57.168-.87.173-.3.405-.498.693-.59.288-.095.58-.057.878.113.172.1.297.23.372.39.076.158.082.293.02.402a.204.204 0 0 1-.135.1.215.215 0 0 1-.17-.023.214.214 0 0 1-.106-.143.226.226 0 0 1 .02-.16.328.328 0 0 0 .037-.264.35.35 0 0 0-.172-.212.583.583 0 0 0-.634.01 1.11 1.11 0 0 0-.383.405 1.1 1.1 0 0 0-.152.703c.03.24.138.413.323.52.237.135.523.12.86-.056l.042.07zm-2.116-1.423c-.183.254-.415.387-.696.4-.248.013-.492-.066-.732-.24-.1-.073-.202-.18-.307-.324a1.476 1.476 0 0 0-.22-.262c-.066-.05-.14-.033-.217.047l-.09-.065.51-.957.09.065c-.177.6-.07 1.04.316 1.322a.62.62 0 0 0 .398.123.495.495 0 0 0 .404-.218c.165-.225.167-.52.007-.883l-.224-.507c-.186-.423-.183-.77.01-1.035.154-.21.342-.33.57-.362a.89.89 0 0 1 .658.186c.12.087.22.195.302.322.08.126.143.205.186.237.06.042.134.028.226-.04l.084.06-.535.925-.097-.07c.185-.572.1-.986-.255-1.246a.515.515 0 0 0-.36-.104.433.433 0 0 0-.325.2c-.076.104-.1.24-.072.404.02.096.073.25.16.466l.215.527c.18.435.177.78-.01 1.03m-1.298-3.65a.21.21 0 0 1-.136.07.17.17 0 0 1-.146-.035c-.073-.063-.102-.135-.087-.214l.042-.235a.21.21 0 0 0-.083-.157c-.143-.125-.3-.087-.473.11l-.416.48.455.396-.104.12-.456-.396-1.107 1.274c-.14.16-.092.342.144.547l-.044.053-.984-.854.047-.054c.203.18.377.19.517.03l1.106-1.274-.31-.27.106-.12.308.268.1-.115c.21-.242.44-.376.684-.405a.813.813 0 0 1 .645.217c.116.1.19.212.22.332.025.103.014.18-.032.234m-3.47-.16c.23-.24.384-.473.457-.696.092-.28.046-.507-.138-.684a.466.466 0 0 0-.465-.116c-.167.044-.332.15-.497.32a1.91 1.91 0 0 0-.454.707c-.094.277-.058.497.107.656.145.143.323.18.53.112.163-.052.315-.153.458-.3m.47.175a1.25 1.25 0 0 1-.84.366 1.03 1.03 0 0 1-.8-.322.99.99 0 0 1-.297-.767c.01-.3.13-.57.357-.802.233-.243.492-.376.776-.396.3-.024.576.083.822.32.244.237.364.505.36.8-.002.3-.128.564-.378.8M20.4 65.206c-.03-.04-.094-.057-.192-.053a1.032 1.032 0 0 0-.22.034l-2.217.68c-.524.16-.883.12-1.075-.126-.15-.192-.142-.353.023-.482.047-.038.104-.043.17-.02.054.022.1.056.136.103a.71.71 0 0 1 .08.204c.017.05.04.095.067.133.1.125.395.09.886-.108l.877-1.726c.062-.12.095-.2.1-.237.01-.058-.008-.13-.05-.215l.057-.044.632.81-.054.045c-.12-.156-.218-.205-.288-.15a.437.437 0 0 0-.102.13l-.66 1.267 1.26-.425a.82.82 0 0 0 .207-.086c.024-.02.034-.053.028-.1a.313.313 0 0 0-.077-.165l.056-.044.414.532-.055.043zm-3.03-.942a1.534 1.534 0 0 1-.402-.077.645.645 0 0 1-.292-.233c-.148-.21-.075-.417.217-.622l1.304-.912-.152-.216c-.008-.012-.003-.024.014-.042.018-.013.034-.016.044-.013.168.078.47.125.904.142l.106.003-.543.38.284.406-.13.09-.285-.406-1.19.835c-.226.158-.297.296-.214.415.057.08.17.135.34.165l-.007.083zm-1.28-1.246l-.627-1.002.06-.038c.133.215.29.265.47.153l1.135-.71c.147-.09.187-.19.12-.298a.627.627 0 0 0-.135-.14l.063-.038.655.538-1.61 1.008c-.182.11-.206.274-.07.49l-.06.037zm2.466-1.988a.238.238 0 0 1-.194.03.262.262 0 0 1-.156-.118.247.247 0 0 1-.037-.19.25.25 0 0 1 .115-.155c.062-.038.127-.05.194-.038.066.012.118.05.157.11a.256.256 0 0 1-.08.36m-2.88.223c-.18.1-.36.112-.54.036a.81.81 0 0 1-.385-.37 1.03 1.03 0 0 1-.094-.28 1.033 1.033 0 0 0-.084-.265c-.036-.064-.073-.085-.114-.062l-.034-.06.677-.376.04.074c-.362.308-.464.606-.306.89a.47.47 0 0 0 .213.208c.1.047.198.044.296-.01.14-.077.212-.263.217-.554l.01-.4c.006-.315.116-.532.328-.65a.584.584 0 0 1 .463-.042c.17.05.3.163.4.34.048.088.08.183.095.285.014.103.03.17.048.2.02.035.052.05.096.04l.03.056-.592.33-.04-.07c.308-.285.397-.542.267-.775a.43.43 0 0 0-.207-.19.28.28 0 0 0-.26.015c-.126.068-.193.25-.204.54l-.013.407c-.012.35-.114.576-.306.683m.37-2.28c-.146.064-.246.036-.3-.085a.258.258 0 0 1 .003-.21c.03-.074.036-.13.018-.17-.022-.052-.09-.095-.206-.127a.44.44 0 0 0-.305.01l-1.07.478c-.196.086-.24.244-.14.475l-.062.028-.48-1.075.064-.03c.1.23.25.3.445.214l1.17-.522c.177-.078.245-.18.204-.303a.484.484 0 0 0-.11-.148l.067-.03.577.617-.416.184c.358.06.577.178.655.354a.27.27 0 0 1 .012.2.22.22 0 0 1-.128.14M14.55 56.88c.346-.17.47-.387.366-.654-.117-.3-.36-.405-.737-.316l.37.97zm-.483.827a1.148 1.148 0 0 1-.693-.155.97.97 0 0 1-.456-.5.866.866 0 0 1 .037-.726c.126-.26.36-.458.7-.59.316-.12.612-.132.887-.035a.912.912 0 0 1 .574.562c.097.252.092.483-.013.695a.934.934 0 0 1-.518.455l-.555-1.444c-.292.113-.507.276-.645.497-.14.218-.17.43-.09.64a.755.755 0 0 0 .33.37.89.89 0 0 0 .446.145l-.003.087zm.41-2.624c-.027-.104-.153-.17-.378-.2l-1.925-.237c-.07-.01-.11-.023-.12-.046-.01-.02.016-.056.08-.108l1.54-1.214c.175-.14.245-.275.21-.404l.068-.017.255.946-.07.016c-.037-.144-.102-.204-.192-.18a.5.5 0 0 0-.16.08l-1.08.82 1.25.125c.107.01.19.007.254-.006.097-.024.126-.105.088-.247l.068-.02.18.672-.068.018zm-2.817-2.03l-.245-1.156.068-.014c.053.246.183.35.39.304l1.31-.277c.168-.038.24-.117.215-.24a.608.608 0 0 0-.08-.177l.074-.018.43.732-1.86.395c-.21.044-.286.19-.234.437l-.068.014zm2.998-1.024a.236.236 0 0 1-.192-.036.265.265 0 0 1-.107-.167.24.24 0 0 1 .19-.296.252.252 0 0 1 .196.03.24.24 0 0 1 .112.16.262.262 0 0 1-.036.198.254.254 0 0 1-.164.11m-3.39-.523l-.184-1.04.07-.01c.036.207.16.29.368.253l1.24-.217c.12-.022.206-.073.256-.154a.39.39 0 0 0 .047-.28c-.032-.18-.16-.344-.38-.49l-1.323.233c-.21.037-.297.158-.26.365l-.07.012-.182-1.038.07-.013c.036.206.16.29.37.255l1.33-.235c.105-.018.168-.053.19-.1.023-.047.02-.13-.008-.252l.07-.012.358.686-.403.07c.31.18.487.41.538.69.066.378-.15.61-.648.698l-1.12.2c-.21.035-.297.156-.26.363l-.07.015zm2.762-2.966c-.02-.313-.138-.46-.346-.448l-1.783.125c-.424.03-.747-.093-.97-.368-.172-.215-.27-.495-.293-.84-.027-.362.038-.654.193-.875.188-.266.5-.415.94-.445l1.737-.12c.21-.017.303-.17.282-.462l.095-.006.097 1.383-.095.008c-.02-.292-.13-.433-.33-.417l-1.803.125c-.294.02-.512.094-.655.217-.176.15-.253.387-.23.71.043.626.386.915 1.026.87l1.758-.123c.218-.015.317-.178.296-.49l.094-.006.08 1.153-.094.01zm57.173 8.777a.218.218 0 0 1 .1.116c.023.055.023.105 0 .15-.043.085-.105.13-.187.136l-.237.015a.214.214 0 0 0-.134.117c-.087.17-.012.314.222.434l.564.286.275-.54.143.075-.275.538 1.503.766c.19.098.356.007.497-.272l.062.032-.59 1.16-.062-.032c.123-.243.09-.414-.1-.51l-1.503-.765-.185.366-.143-.075.186-.364-.137-.07c-.286-.145-.47-.333-.56-.564a.813.813 0 0 1 .055-.678.678.678 0 0 1 .268-.296c.096-.047.175-.055.237-.025"
    fill="#034ea1" fill-rule="nonzero" />
  <path
    d="M56.31 53.13c5.33-12.255.545-19.99-9.845-24.094 6.227 2.518 4.91 10.233 2.427 14.14-2.48 3.908-6.708 7.072-13.374 10.073 7.14-2.792 11.6-6.475 13.68-9.92 2.08-3.447 2.46-6.44 1.895-9.803 3.228 6.89.506 12.956-5.828 18.977 7.343-6.322 9.724-13.13 5.572-20.176 6.175 6.774 4.507 14.023.252 20.48 5.234-7.255 6.138-14.928-.805-21.522 8.348 5.11 9.534 12.095 6.025 21.844M44.615 29.663c-1.48-1.532-2.72-2.466-4.64-3.44 2.736.036 6.012.686 8.128 1.278-2.217-.256-3.21-.03-3.708.31-.495.343-.31.902.22 1.853"
    fill="#034ea1" />
  <path
    d="M44.878 57.374c.042-1.014.142-1.68 1.59-2.03 1.445-.346 3.038-.302 5.696.126 2.658.43 4.79.618 7.415.37-.89-.58-1.16-.857-1.513-1.524-2.295.047-3.815-.112-5.728-.697-1.915-.585-4.168-1.19-5.634-1.034-1.467.154-2.427.97-2.938 2.76-.512-1.79-1.473-2.606-2.94-2.76-1.465-.155-3.72.45-5.632 1.033-1.912.584-3.433.743-5.728.696-.353.667-.622.943-1.513 1.523 2.625.248 4.758.06 7.416-.37 2.66-.428 4.252-.472 5.698-.125 1.445.35 1.546 1.015 1.59 2.03h2.22z"
    fill="#034ea1" />
  <path
    d="M43.768 25.063c11.008 0 19.936 8.927 19.936 19.937 0 11.008-8.928 19.936-19.936 19.936-11.01 0-19.937-8.928-19.937-19.936 0-11.01 8.928-19.937 19.938-19.937m0-.687C55.156 24.376 64.39 33.61 64.39 45c0 11.387-9.234 20.624-20.622 20.624-11.39 0-20.625-9.237-20.625-20.624 0-11.39 9.236-20.624 20.625-20.624"
    fill="#034ea1" />
  <path
    d="M70.31 21.803c.128.17.283.347.296.5.03.355-.878 1.034-1.358 1.388-.16.12-.492.184-.545.368.262.2.53.5.847.604l.13-.058c.065-.136.055-.27.122-.395l.17-.128c.023.028.044.057.065.086-.093.382.145.792.418 1.15.067.087.036.172.12.29-.042.057-.04.038-.015.106-.08.06-.163.12-.244.182-.088-.026-.197.015-.28-.02l-.41-.398c-.66-.348-1.32-.882-2.018-1.005-.58.417-1.823.75-2.347.568-.413-.143-.915-.94-.478-1.256.005-.003.01-.006.013-.01.128.047.28.046.41.094l.505.422c.247.137 1.07.004 1.346-.127l.046-.09c-.344-.754-.926-.643-.642-1.554.02-.066.06-.338.245-.335.048.007.074.043.115.104.076.233.19.556.387.698l.212.26c.16.11.456.37.64.378.243.008 1.563-.998 1.7-1.263.078-.155.082-.5.346-.58l.204.02m-2.98 3.902c.43.633.168 1.972-.438 2.373-.15-.093-.814-.022-.89-.382-.067-.43.315-.636.48-1.04.155-.38.083-.83.203-1.154.005.007.01.016.017.023.245-.08.405.063.627.18M77.07 29.513l.09.158c-.326.364-1.302 1.395-1.93 1.256-.4-.387.14-1.01.606-1.264.273.18.85-.132 1.233-.15m-.576 1.563c.243.458-.173.88.125 1.282.08.016.055.07.13.135.268.234.992.49.996 1.025.002.295-.535.792-.883.633-.08-.058-.59-.665-.597-.728-.372-.277-.796-.46-1.18-.673-.005.01-.012.018-.018.027.005.01.01.02.016.027.055.178.31.413.333.67.056.672.16 1.392-.57 1.786-.084-.053-.217-.074-.306-.138-.19-.135-.51-.635-.708-.558-.264.542-1.17.17-1.633.186-.078.09-.13.17-.12.28.075.133.152.265.228.397.152.117.835.625.87.957.04.385-.445.598-.764.475-.21-.39-.294-.778-.753-1.06-.145-.09-.13-.207-.28-.243-.272.156-.434.32-.76.51-.89-.417-1.603-1.064-1.324-2.172.056-.22.12-.496.335-.668.16.296.05.66.08.957l.168.324c.35.604.773.72 1.25.825.03-.022.057-.043.085-.067.016-.043.03-.087.047-.13l-.228-.397a3.7 3.7 0 0 0-.446-.377c-.262-.18-.803-1.25-.71-1.505.033-.097.133-.156.232-.206.065.02.13.043.195.064.32.217.364.81.676 1.14.183.195.592.37.708.68.057.02.107.03.166.045.335-.358.548-.3.938-.294.076 0 .327-.04.335-.09.047-.202-.38-.402-.494-.52-.05-.09-.102-.178-.153-.265.562-.385.78.168 1.187.564.168.165.427.263.615.365.173.094.507.286.668 0 .07-.124-.008-.242-.016-.395-.047-.807-1.063-1.343-1.635-1.552-.217-.08-.65-.315-.898.06 0 .08-.102.34-.102.34-.23.238-.49.193-.688.24-.073-.087-.11-.078-.182-.194a.94.94 0 0 0 .05-.31c-.112-.05-.18-.105-.242-.266.045-.193.883-1.21 1.094-1.212.465.308.896.385 1.37.58l.517.406c.377.165.808.22 1.205.323.49.125.842.563 1.332.603.01-.016.017-.033.025-.05l-.008-.013c-.327-.11-1.08-.48-.98-1 .053-.28.462-.42.39-.752l.206-.1a.23.23 0 0 0 .104.027M62.878 15.34c.395.303.808.515 1.034.948.028.053.178.444.15.438-.163.694-.882.612-1.218.193.064-.14.087-.26.014-.362l-.142-.117c.2-.392-.164-.813.162-1.1m-1.138-.588l.19.127c-.03.306-.262 1.19-.49 1.457-.148.173-.65.58-.668.793l.003.054c.327.194.702.193.92-.013.126-.115.028-.238.143-.304.16.13.8.62.815.752.008.104-.11.22-.154.264-.646-.31-1.178-.146-1.79-.067-.197.026-.31-.187-.487-.07-.262.17-.654.934-.804 1.117.013.027.028.053.042.078.444.177.858-.42 1.233.484.113.27-.167.463-.273.808-.078.25.094.613.033.917-.13.646-1.07.423-1.344.013-.188-.364.34-1.118.11-1.59-.045-.013-.09-.028-.134-.04-.65.393-.708 1.336-1.168 1.84l-.034-.004c-.383-.323-.227-.93-.003-1.426.105-.23.343-.245.358-.498-.152-.147-.487-.286-.69-.238-.184.043-.295.268-.465.38-.31.21-.776.45-1.14.485a1.05 1.05 0 0 1-.307-.352c.155-.296.097-.365.052-.637.232-.232.54-.522.67-.915.75-.1 1.458-.557 2.234-.52.278.01.457.514.765.318l.084-.146c-.01-.07-.023-.142-.035-.213-.16-.06-.28.02-.428-.02-.603-.167-.583-.83-.25-1.18l.013.007c.183.328.763.61 1.158.616a2.7 2.7 0 0 0 .405-.4l.34-.56c.228-.213.405-.38.608-.563.08-.072.303-.605.408-.767.028.004.055.01.082.012m-3.006 3.258c-.18.05-.82.437-.82.687a.05.05 0 0 1 .013.008c.66.416 1.065-.067.886-.65-.027-.014-.053-.03-.08-.045M35.71 9.965c.075.01.09.032.143.076.034.21.492.91.676.936.027.353.167.438-.098.71-.753.06-.92-.306-.954-1.118-.01-.224-.12-.324-.08-.466.104-.046.208-.09.312-.137m3.478-.512c.405-.076.872.088 1.153.18.007.068.053.166.01.232-.197.506-1.162.61-1.435 1.076.23.228.442.063.74.154.443.133 1.444 1.126 1 1.766-.12.17-.408.287-.557.43-.196.188-.61-.045-.687.334l.074.437c-.097.298-.34.484-.384.827.1.1.218.086.37.1.114-.1.105-.162.132-.297.336-.088 1.01-.086 1.267-.003.117.038.24.326.296.46-.055.072-.08.21-.185.28-.384.28-.81-.308-1.16.056-.24.252.31.792.216 1.17-.216.87-1.82.654-2.36.404l.018-.052c.59-.392 1.504-.435 1.624-1.137-.027-.022-.02-.02-.055-.033-.44-.06-.79.352-1.215.35-.16 0-.44.05-.584-.017l-.227-.165.023-.1c.348-.074 1.615-.498 1.66-.66a1.403 1.403 0 0 1-.02-.088c-.128-.113-.15-.048-.273-.218.003-.162-.048-.29-.01-.436.064-.243.222-.496.17-.805a.18.18 0 0 0-.074-.046c-.322-.112-.717.596-1 .738a.22.22 0 0 0-.006-.03c-.106-.124-.07-.316-.05-.474.076-.604.69-.93 1.257-.642.335-.07.47-.27.647-.436.145-.133.353-.27.428-.445.236-.554-.61-.9-.957-.93-.572-.05-.937.64-1.114.906-.206.308-.406.693-.647.967-.196.223-.38.396-.485.664-.157.4-.105.963-.2 1.393-.77.2-1.092-.468-1.152-1.09-.002-.03.368-.407.44-.525l.4-.815c.19-.295.52-.58.756-.837.35-.38 1.12-.834 1.344-1.258l-.004-.015c-.36-.058-.86-.106-1.092-.383l.007-.033c.908-.035 1.465-.56 1.903-.95m-.422.724c-.012.02-.024.037-.034.056.018.037.038.073.057.11.035-.023.07-.047.107-.07l-.017-.075-.022-.028c-.03.003-.062.005-.092.006m-.03.21c-.028.03-.06.056-.09.084.015.013.03.026.04.038l.087-.036.015-.067-.02-.026c-.01.004-.022.006-.03.01M50.914 9.55c.478.078.727.297.68.72-.017.138-.16.28-.08.45.18.37.79.608 1.293.75l-.007.215c-.255.345-.834.41-1.19.627-.115.07-.182.24-.313.287-.372.126-.726-.01-.842.486.21.296.833.285.955.645.06.174-.002.89-.117 1.123-.062.126-.27.467-.222.658.09.234.44.285.634.45.28.24.49.46.542.882.048.393-.483.772-.923.597-.265-.106-.388-.443-.566-.655-.07-.082-.227-.135-.32-.194-.11-.068-.58.064-.633.076-.09-.01-.182-.02-.272-.032-.38.05-.807.078-1.222-.087-.023-.265-.205-.59-.377-.762l-.06-.01-.036.025c-.038.238.135 1.138-.083 1.19-.12.03-.306-.162-.35-.214-.155-.192-.118-.508-.196-.73-.13-.182-.257-.363-.385-.546-.05-.145.047-.306-.052-.41-.123-.13-1.01.203-1.38.023-.213-.104-.574-.573-.287-.837l.4-.256c.096-.126-.005-.385.09-.51.17.013.454.155.716.14.274-.015 1.393-.234 1.52-.4l.278-.972c.11-.215.31-.29.364-.586-.04-.032-.042-.045-.062-.09-.39-.067-.63-.107-.946-.163-.047-.098-.135-.166-.186-.264.014-.1.01-.12.048-.178.036-.05-.006-.018.052-.037.188-.015.215.157.395.13.24-.035 1.02-.225 1.177-.368.33-.303.31-.9.715-1.096.278.045.426.126.63.187.003.04-.023.046.052.07-.154.448-.612.58-.852.904-.294.395-.363.974-.554 1.495-.034.1-.205.373-.19.478.382.103.342-.425.63-.51.293-.024.658.077.824-.12.18-.215.08-.532.215-.796.15-.3.36-.655.46-.97.115-.355-.31-.475.034-.814m.52 1.372c-.168.26-.453.7-.468 1l.028.02c.23.04.78-.117.935-.223.053-.325-.25-.595-.407-.782l-.09-.016m-1.8 1.82c-.398.125-.565.42-.835.72-.36.407-1.176 1.116-.81 1.916.177.386.723.854 1.334.68.15-.043.18.01.28-.09-.167-.326-.347-1.184-.61-1.39.006-.01.013-.018.02-.027l.51.09c.192.11.843.546 1.013.485.115-.416.418-.977.214-1.323-.052-.004-.103-.008-.154-.01-.178.098-.278.4-.453.476-.17.074-.23-.237-.25-.336-.09-.4.023-.64.024-1.125a23.464 23.464 0 0 0-.283-.064M9.788 32.99c.092-.31 1.166-1.207 1.41-1.263.39 0 .72.42 1.125.332.285-.454.232-1.09.282-1.643.034-.375.268-.846.55-.814.38.39.58.936.73 1.456.08.28.08.746.394.878.03-.018.06-.037.092-.054.235-.1.323-.71.473-.945.102-.023.28-.13.43-.013.25.238.047.578.013.95-.038.43.292.808.4 1.21.05.185-.027.31.022.51.1.417.917.288 1.24.553.124.104.108.29.206.402.177.206.5.177.722.367l.254.288-.005.015c-.457-.11-1.013.07-1.41.142-.252.047-.6-.183-.866-.12-.038.13-.08.26-.12.392-.325.056-.762.035-.953.327-.11.165.038.3-.094.464-.106.013-.3.01-.407.05-.208.074-.336.305-.567.35-.257.053-.465-.274-.644-.013l-.088-.025c-.086-.284-.716-.32-1.063-.442.133-.276.394-.257.506-.48.122-.236-.1-.426-.14-.59-.12-.474-.067-1.042-.227-1.446a75.222 75.222 0 0 0-.507-.167c-.208-.046-.417-.09-.626-.137-.13-.077-.242-.202-.358-.253-.288-.13-.583-.064-.767-.253l-.007-.033m3.3-1.72c.087.8-.624 1.258.5 1.54.16.038.264.02.37-.028l.004-.015c-.31-.558-.327-1.16-.754-1.716-.05.008-.018-.003-.052.02l-.07.2m.145 3.224c.06.378.186.586.363.885.262.073.284-.066.438-.104.14.03.278.063.417.095.037 0 .005.02.047 0 .122-.02.188-.197.195-.375-.213-.238-.654-.627-1.13-.554-.177.027-.198-.076-.33.054M17.216 20.808c.4-.407.803-.8 1.205-.86.96-.147 1.922.928 2.822 1.83.306.304.61.61.915.914.5.642 1.485 1.124 1.658 1.852.073.303-.185 1.71-.763 1.84-.28.063-.94-.115-1.174.29-.067.118-.09.273-.13.41-.027.095-.71 1.016-.882 1.1-.21.1-.38.04-.58.064-.075.202.045.356-.152.56l-.01.01c-.198-.045-.44-.09-.658-.162-.066-.02-.495-.435-.528-.528-.14-.392-.47-.83-.732-1.227-.223-.336-.567-.53-.753-.644l-.56-.453c-.135-.088-.426-.25-.55-.463-.59-1.03-.363-1.48-.215-2.497.05-.328.284-.653.367-.97l.107-.106a8.33 8.33 0 0 0 .323-.625c.098-.112.195-.222.29-.334m.583.02l-.7.895c-.374.687-.327 1.48-.15 2.176.036.146.202.69.398.763l.053.01c.25-.344.058-1.952.892-1.905.423-.14.66.788.85 1 .28-.025.75-.04.98-.333-.038-.085-.037-.14.055-.226.345-.052.636-.28.968-.15l.258.257c-.01.27-.076.545-.118.85-.09.667-.068 1.34-.43 2.024-.12.228-.317.323-.474.475-.26-.1-.428-.124-.73-.43l.02-.582a5.002 5.002 0 0 1-.075-.054c-.09-.014-.09.177-.204.225-.266.113-.608.244-.84-.086-.032-.048-.132-.098-.13-.173-.05-.287.656-1.646.012-1.69l-.02-.022c-.152.29-.72 1.038-.658 1.303.01.178.308.304.388.538.18.532.913 1.312 1.464 1.744.19.148.144.318.334.377.16-.153.31-.057.473-.13.21-.092.703-.844.862-1.097l-.043-.043c-.076.018-.126-.04-.173-.065l-.012-.033c.2-.184.532-.076.657-.377.065-.154-.036-.298.033-.463.265-.108.734-.088.904-.452.378-.81-1.127-2.478-2.024-3.058-.137-.088-.425-.448-.624-.538l-.367-.345c-.45-.275-.87-.684-1.324-.808-.143.1-.33.24-.505.42m1.54 3.477c.013.064.027.13.042.194.062.06.072.067.13.066l.01-.054a3.963 3.963 0 0 0-.01-.118.345.345 0 0 0-.152-.108l-.02.02m-.41.69c-.053.208-.075.302-.022.517.007-.007.015-.015.022-.02.025-.005.05-.01.075-.013.05-.156.043-.28.064-.43l-.064-.065-.075.01m1.303-1.194c.013.086.04.177.108.26.13.043.26.113.387.13l.01-.012-.03-.183c-.146-.168-.182-.26-.356-.29l-.12.096M27.187 13.102c.424-.278 1.46.317 1.79.644.19.188.09.457.31.58.284.16.62.157.906.297.175.084.3.295.48.34.248.062.55-.102.785.03.083.043.115.13.12.212-.262.443-1.04 1.01-.983 1.523.05.445.435.71.563 1.16l.45 1.18c.022.09.038.384.12.432.024.174.016.378.03.546.016.173.202.366.167.473l-.017-.026c-.473-.055-.872-.482-1.236-.936-.3-.37-.5-.992-.813-1.18l-.035.005c-.588.422-.678 1.033-1.46 1.38-.198-.2-.68-.667-.624-.974.04-.215.227-.402.228-.624l-.074-.28c-.01-.16.045-.354.062-.515.015-.144-.222-.857-.417-.8-.172.052-.166.6-.162.726.01.322.125.656.138.985.026.66-.292.8.05 1.572.155.352 1.052.973 1.02 1.134a3.17 3.17 0 0 1-.01.097c-.103.076-.13.1-.22.108-.203-.08-.448-.17-.636-.328-.168-.142-.253-.324-.433-.407l-.045.012c-.3.557-.176 1.164-1.078 1.603l-.127-.026c-.142-.207-.588-.653-.58-.912l.15-.627c.05-.52.047-1.04.11-1.55l-.054-.055a.352.352 0 0 0-.034.004c-.176.252-.622.864-.982.92-.48-.717.018-1.43.176-2.032.09-.34.34-1.625.278-1.932-.05-.244-.22-.36-.263-.593.222-.254.484-.245.75-.33.226.404.063.68.03 1.074-.066.794-.38 1.61-.588 2.375-.058.215-.168.41-.185.632l.076.06c.097-.083 1.17-1.13 1.19-1.184.17-.496-.585-1.69.39-1.843.16.088.617.3.79.317l.04-.025c.147-.534-.026-.595-.456-.885.03-.27.09-.427.27-.67.245.147.45.208.7.176.223-.46-.82-1.31-.66-1.86m-.663 3.643c-.06.16-.177.442-.004.605l.098-.045c.083-.187.128-.32.108-.528-.084-.1-.128-.05-.202-.03m1.714-.8c-.02.06-.04.08-.03.147.01.03.018.062.025.093.04.015.082.03.123.047.023-.03.047-.057.07-.084-.05-.113-.028-.176-.115-.233-.023.01-.048.018-.072.03m-1.398 1.612c-.166.28-.323.843.138 1.095l.042-.047c.114-.294.253-.913.117-1.208a1.283 1.283 0 0 0-.297.16m3.14-1.85c-.01.07-.01.12.025.203l.03.018.106-.142-.03-.072c-.022-.016-.044-.03-.066-.047l-.065.04m-3.87 2.567l-.15.135.047.097c.104-.013.186 0 .28-.075l.026-.127-.105-.076-.098.045m2.785-1.086c-.044.254-.212.478-.23.734.018.026.035.05.052.077h.055c.21-.144.575-.662.296-.796-.086-.04-.066-.067-.173-.013m-2.44 2.082c.005.245-.108.913-.007 1.098l.026-.017a2.98 2.98 0 0 0 .1-.068c.01-.337.443-.672.05-1.034l-.106-.02-.063.042"
    fill="#034ea1" fill-rule="nonzero" />
</svg>